<mxfile host="app.diagrams.net" modified="2023-11-03T06:03:31.504Z" agent="Mozilla/5.0 (Macintosh; Intel Mac OS X 10_15_7) AppleWebKit/537.36 (KHTML, like Gecko) Chrome/114.0.0.0 Safari/537.36" version="22.0.8" etag="YjQxj0EwVqMS9Hz_1L0x" type="github">
  <diagram name="第 1 页" id="38ocQD13Me86a_CXSERh">
    <mxGraphModel>
      <root>
        <mxCell id="0" />
        <mxCell id="1" parent="0" />
      </root>
    </mxGraphModel>
  </diagram>
</mxfile>
